<svg width="25" height="25" viewBox="0 0 25 25" fill="none" xmlns="http://www.w3.org/2000/svg">
<g id="invite fill 1" clip-path="url(#clip0_10_96)">
<g id="Group">
<path id="Vector" d="M21.8459 7.56629V10.5606L23.7475 9.14798L21.8459 7.56629ZM13.8228 0.919582C13.1527 0.36418 12.1807 0.358143 11.5106 0.913545L10.7439 1.56554H14.6015L13.8228 0.919582Z" fill="white"/>
<path id="Vector_2" d="M14.4687 17.5514C13.9495 17.9378 13.3217 18.1491 12.6757 18.1431C12.0298 18.1431 11.3959 17.9378 10.8767 17.5514L1.2598 10.3735V22.6829C1.25376 23.679 2.05668 24.494 3.05278 24.5H22.2806C23.2767 24.494 24.0796 23.679 24.0735 22.6829V10.3735L14.4687 17.5514Z" fill="white"/>
<path id="Vector_3" d="M1.5918 9.148L3.43307 10.5184V7.62064L1.5918 9.148ZM4.64047 2.77295V11.4179L11.583 16.5856C12.2289 17.0564 13.1164 17.0564 13.7623 16.5856L20.6385 11.4602V2.77295H4.64047ZM8.92672 7.60253H12.1867C12.5187 7.60253 12.7904 7.87419 12.7904 8.20623C12.7904 8.53826 12.5187 8.80993 12.1867 8.80993H8.92672C8.59469 8.80993 8.32303 8.53826 8.32303 8.20623C8.32303 7.87419 8.59469 7.60253 8.92672 7.60253ZM16.4126 11.8284H8.92672C8.59469 11.8284 8.32303 11.5567 8.32303 11.2247C8.32303 10.8927 8.59469 10.621 8.92672 10.621H16.4126C16.7446 10.621 17.0163 10.8927 17.0163 11.2247C17.0163 11.5567 16.7446 11.8284 16.4126 11.8284Z" fill="white"/>
</g>
</g>
<defs>
<clipPath id="clip0_10_96">
<rect width="24" height="24" fill="white" transform="translate(0.666626 0.5)"/>
</clipPath>
</defs>
</svg>
