<svg width="25" height="25" viewBox="0 0 25 25" fill="none" xmlns="http://www.w3.org/2000/svg">
<g id="inviteeee 1" clip-path="url(#clip0_1_219)">
<g id="Group">
<path id="Vector" d="M23.9544 9.05252L21.0042 6.59035V3.09724C21.0042 2.79564 20.741 2.56532 20.4339 2.56532H16.1402L14.4183 1.1286C13.4038 0.289596 11.9342 0.289596 10.9197 1.13408L9.19783 2.56532H4.84927C4.54766 2.56532 4.27896 2.79016 4.27896 3.09724V6.64518L1.38358 9.05252C1.26294 9.15671 1.19165 9.31574 1.19713 9.47476H1.2081V21.7527C1.2081 23.2662 2.42548 24.5001 3.93349 24.5001H21.399C22.9125 24.5001 24.1244 23.2607 24.1244 21.7527V9.47476H24.1354C24.1463 9.31025 24.0805 9.15671 23.9544 9.05252ZM21.0042 8.01611L22.7316 9.45283L21.0042 10.736V8.01611ZM11.6216 1.97309C12.2303 1.46859 13.1132 1.47407 13.7219 1.97857L14.4183 2.56532H10.9142L11.6216 1.97309ZM5.3757 3.66206H19.9075V11.5531L13.6615 16.2032C13.0693 16.6365 12.2687 16.6365 11.6819 16.2032L5.3757 11.5092V3.66206ZM4.27896 8.06546V10.6921L2.60644 9.44735L4.27896 8.06546ZM23.0332 21.7472C23.0386 22.6575 22.3093 23.3978 21.4045 23.4033H3.93349C3.02868 23.3978 2.29935 22.6575 2.30484 21.7527V10.566L11.0349 17.0861C12.0055 17.8045 13.3325 17.8045 14.3031 17.0861L23.0332 10.566V21.7472Z" fill="#9DB2CE"/>
<path id="Vector_2" d="M12.2303 8.04901H9.2691C8.9675 8.04901 8.72073 8.29578 8.72073 8.59738C8.72073 8.89898 8.9675 9.14575 9.2691 9.14575H12.2303C12.5319 9.14575 12.7787 8.89898 12.7787 8.59738C12.7787 8.29578 12.5319 8.04901 12.2303 8.04901ZM16.0689 10.7909H9.2691C8.9675 10.7909 8.72073 11.0376 8.72073 11.3392C8.72073 11.6408 8.9675 11.8876 9.2691 11.8876H16.0689C16.3705 11.8876 16.6172 11.6408 16.6172 11.3392C16.6172 11.0376 16.3705 10.7909 16.0689 10.7909Z" fill="#9DB2CE"/>
</g>
</g>
<defs>
<clipPath id="clip0_1_219">
<rect width="24" height="24" fill="white" transform="translate(0.666687 0.5)"/>
</clipPath>
</defs>
</svg>
