<svg width="24" height="25" viewBox="0 0 24 25" fill="none" xmlns="http://www.w3.org/2000/svg">
<g id="user fill 1" clip-path="url(#clip0_10_276)">
<g id="Group">
<path id="Vector" d="M12 0.5C8.51067 0.5 5.67188 3.3388 5.67188 6.82812C5.67188 10.3175 8.51067 13.1562 12 13.1562C15.4893 13.1562 18.3281 10.3175 18.3281 6.82812C18.3281 3.3388 15.4893 0.5 12 0.5ZM19.8734 17.2904C18.1409 15.5313 15.8442 14.5625 13.4062 14.5625H10.5938C8.15588 14.5625 5.85909 15.5313 4.12659 17.2904C2.40258 19.0409 1.45312 21.3515 1.45312 23.7969C1.45312 24.1852 1.76794 24.5 2.15625 24.5H21.8438C22.2321 24.5 22.5469 24.1852 22.5469 23.7969C22.5469 21.3515 21.5974 19.0409 19.8734 17.2904Z" fill="white"/>
</g>
</g>
<defs>
<clipPath id="clip0_10_276">
<rect width="24" height="24" fill="white" transform="translate(0 0.5)"/>
</clipPath>
</defs>
</svg>
