<svg width="25" height="25" viewBox="0 0 25 25" fill="none" xmlns="http://www.w3.org/2000/svg">
<g id="vuesax/bold/wallet">
<g id="wallet">
<path id="Vector" d="M21.7833 14.14V15.14C21.7833 15.41 21.5733 15.63 21.2933 15.64H19.8333C19.3033 15.64 18.8233 15.25 18.7833 14.73C18.7533 14.42 18.8733 14.13 19.0733 13.93C19.2533 13.74 19.5033 13.64 19.7733 13.64H21.2833C21.5733 13.65 21.7833 13.87 21.7833 14.14Z" fill="white"/>
<path id="Vector_2" d="M18.3233 13.19C17.8233 13.68 17.5833 14.41 17.7833 15.17C18.0433 16.1 18.9533 16.69 19.9133 16.69H20.7833C21.3333 16.69 21.7833 17.14 21.7833 17.69V17.88C21.7833 19.95 20.0933 21.64 18.0233 21.64H6.54333C4.47333 21.64 2.78333 19.95 2.78333 17.88V11.15C2.78333 9.92001 3.37333 8.83001 4.28333 8.15001C4.91333 7.67001 5.69333 7.39001 6.54333 7.39001H18.0233C20.0933 7.39001 21.7833 9.08001 21.7833 11.15V11.59C21.7833 12.14 21.3333 12.59 20.7833 12.59H19.7633C19.2033 12.59 18.6933 12.81 18.3233 13.19Z" fill="white"/>
<path id="Vector_3" d="M16.5333 5.32C16.8033 5.59 16.5733 6.01 16.1933 6.01L8.51331 6C8.07331 6 7.84331 5.46 8.16331 5.15L9.78331 3.52C11.1533 2.16 13.3733 2.16 14.7433 3.52L16.4933 5.29C16.5033 5.3 16.5233 5.31 16.5333 5.32Z" fill="white"/>
</g>
</g>
</svg>
